<svg height="481pt" viewBox="-40 0 481 481.62591" width="481pt" xmlns="http://www.w3.org/2000/svg"><g fill="#d4e1f4"><path d="m141.984375 167.292969c8.695313-8.660157 18.851563-15.71875 30-20.851563 1.84375-1.902344 3.742187-3.730468 5.71875-5.472656-16.890625 4.859375-32.273437 13.914062-44.71875 26.324219 5.003906 4.960937 10.511719 9.386719 16.433594 13.210937.707031-1.621094 1.453125-3.214844 2.21875-4.789062-3.390625-2.601563-6.617188-5.414063-9.652344-8.421875zm0 0"/><path d="m124.96875 176.492188c-13.382812 16.808593-21.234375 37.351562-22.472656 58.800781h9c1.125-19.371094 7.644531-38.039063 18.820312-53.898438-1.828125-1.574219-3.613281-3.203125-5.347656-4.902343zm0 0"/><path d="m111.496094 247.292969h-9c1.238281 21.398437 9.089844 41.886719 22.472656 58.632812 1.726562-1.695312 3.503906-3.332031 5.335938-4.914062-11.171876-15.792969-17.6875-34.40625-18.808594-53.71875zm0 0"/><path d="m171.988281 335.484375c-11.148437-5.132813-21.300781-12.191406-30-20.851563 3.035157-3.011718 6.261719-5.824218 9.652344-8.429687-.765625-1.574219-1.511719-3.167969-2.21875-4.789063-5.921875 3.824219-11.429687 8.253907-16.433594 13.21875 12.445313 12.410157 27.832031 21.464844 44.722657 26.324219-1.980469-1.746093-3.878907-3.574219-5.722657-5.472656zm0 0"/></g><path d="m91.484375 284.292969h11.433594c3.3125 0 6-2.6875 6-6s-2.6875-6-6-6h-11.433594c-21.605469.140625-42.328125-8.578125-57.332031-24.125-14.644532-14.949219-22.519532-35.25-21.792969-56.164063 1.234375-35.988281 26.984375-66.433594 62.265625-73.625 2.878906-.578125 4.910156-3.160156 4.800781-6.089844-.015625-.484374-.015625-.960937-.015625-1.453124-.003906-42.402344 27.039063-80.082032 67.214844-93.644532 40.171875-13.566406 84.523438.007813 110.222656 33.734375 1.691406 2.214844 4.6875 2.976563 7.234375 1.835938 14.363281-6.441407 31.011719-5.167969 44.226563 3.386719 13.214844 8.554687 21.195312 23.222656 21.203125 38.964843 0 .230469 0 .464844-.007813.695313-.085937 2.5625 1.46875 4.894531 3.863282 5.804687 34.472656 13.234375 57.152343 46.425781 56.949218 83.347657-.195312 22.054687-8.734375 43.21875-23.898437 59.230468-15.066407 16.023438-35.46875 25.980469-57.367188 28-2.152343.179688-4.039062 1.496094-4.945312 3.453125-.910157 1.957031-.699219 4.25.550781 6.007813 1.25 1.753906 3.347656 2.707031 5.492188 2.488281 24.8125-2.289063 47.929687-13.570313 65-31.722656 17.242187-18.214844 26.949218-42.28125 27.167968-67.359375.21875-40.445313-23.753906-77.105469-60.890625-93.128906-1.011719-18.386719-10.628906-35.222657-25.957031-45.433594-15.328125-10.207032-34.574219-12.59375-51.929688-6.441406-29.464843-35.503907-77.84375-49.042969-121.460937-33.988282-43.613281 15.058594-73.335937 55.558594-74.621094 101.679688-38.460937 10.066406-65.746093 44.199218-67.089843 83.933594-.847657 24.144531 8.246093 47.578124 25.160156 64.832031 17.339844 17.773437 41.125 27.792969 65.957031 27.78125zm0 0" fill="#0635c9"/><path d="m322.085938 240.960938c0-63.964844-51.921876-116-115.882813-116-63.964844 0-116.144531 52.035156-116.144531 116 .003906 39.476562 20.066406 76.25 53.257812 97.617187v40c.027344 7.273437-4.730468 13.699219-11.691406 15.800781-12.058594 3.621094-20.3125 14.722656-20.308594 27.3125v8.996094c-8.4375 2.960938-13.507812 11.578125-12 20.394531 1.507813 8.816407 9.15625 15.257813 18.101563 15.246094 10.113281-.015625 18.300781-8.222656 18.285156-18.335937-.101563-7.792969-5.042969-14.695313-12.386719-17.308594v-8.992188c-.023437-7.269531 4.730469-13.695312 11.691406-15.796875 12.058594-3.625 20.3125-14.726562 20.308594-27.316406v-33.25c8.972656 4.292969 18.441406 7.457031 28.195313 9.414063l.222656 44.101562c.046875 5.003906-2.667969 9.625-7.058594 12.019531-8.273437 4.492188-13.410156 13.171875-13.359375 22.585938v8.238281c-7.4375 2.582031-12.476562 9.523438-12.628906 17.394531-.007812 9.304688 6.957031 17.140625 16.199219 18.230469 9.242187 1.085938 17.835937-4.921875 19.988281-13.976562 2.152344-9.050782-2.816406-18.285157-11.558594-21.472657v-8.414062c-.027344-5.015625 2.707032-9.632813 7.113282-12.023438 8.296874-4.484375 13.460937-13.167969 13.4375-22.601562l-.136719-42.355469c3.492187.316406 6.875.488281 10.449219.488281 3.71875.019531 7.4375-.164062 11.136718-.546875v21.898438c.03125 9.917968 6.023438 18.839844 15.191406 22.617187 4.691407 1.921875 7.773438 6.472657 7.808594 11.542969v4.101562c-8.449218 2.941407-13.542968 11.554688-12.042968 20.378907 1.496093 8.820312 9.144531 15.273437 18.089843 15.261719 10.117188-.015626 18.3125-8.21875 18.3125-18.335938-.089843-7.785156-5.023437-14.691406-12.359375-17.304688v-4.097656c-.027344-9.917968-6.023437-18.839844-15.191406-22.617187-4.691406-1.921875-7.769531-6.472657-7.808594-11.542969v-23.699219c14-2.902343 28-8.382812 39-15.941406v56.464844c.082032 9.339843 6.605469 17.386719 15.726563 19.402343 3.617187.789063 6.21875 3.96875 6.273437 7.671876v23.773437c-8.421875 3-13.457031 11.632813-11.921875 20.441406 1.535157 8.808594 9.195313 15.226563 18.136719 15.199219 4.847656-.007812 9.496094-1.945312 12.914062-5.386719 3.421876-3.4375 5.332032-8.097656 5.3125-12.945312-.125-7.800781-5.085937-14.703125-12.441406-17.308594v-23.773437c-.082031-9.339844-6.605468-17.386719-15.726562-19.398438-3.621094-.792969-6.21875-3.972656-6.273438-7.675781v-65.304688c26.621094-21.804687 41.972656-54.464843 41.769532-88.871093zm-204.628907 213.363281c-3.496093.003906-6.335937-2.832031-6.335937-6.332031s2.835937-6.335938 6.335937-6.335938 6.335938 2.835938 6.335938 6.335938c-.003907 3.496093-2.839844 6.328124-6.335938 6.332031zm51.507813 11.089843c-3.5.003907-6.335938-2.832031-6.335938-6.332031-.003906-3.5 2.835938-6.335937 6.332032-6.335937 3.5 0 6.335937 2.835937 6.335937 6.335937-.003906 3.496094-2.835937 6.328125-6.332031 6.332031zm77.414062-25.199218c-3.496094 0-6.335937-2.835938-6.335937-6.332032 0-3.5 2.835937-6.335937 6.335937-6.335937s6.335938 2.835937 6.335938 6.332031c-.003906 3.496094-2.839844 6.328125-6.335938 6.332032zm50.222656 29.414062c-3.5 0-6.335937-2.835937-6.335937-6.335937 0-3.496094 2.835937-6.332031 6.335937-6.335938 3.496094 0 6.335938 2.835938 6.335938 6.335938-.007812 3.496093-2.839844 6.328125-6.335938 6.332031zm-29.097656-179.238281c4.503906-13.945313 7.023438-28.453125 7.476563-43.097656h35.160156c-1.277344 21.527343-9.21875 42.125-22.722656 58.9375-6.03125-6.003907-12.714844-11.316407-19.917969-15.84375zm-55.1875-81.367187c15.425782-.730469 30.550782-4.554688 44.472656-11.242188 3.761719 12.164062 5.84375 24.785156 6.183594 37.511719h-50.65625zm0-12.019532v-57.566406c17.875 10.253906 31.644532 26.496094 40.308594 46.84375-12.570312 6.273438-26.285156 9.921875-40.308594 10.722656zm-12-57.566406v57.570312c-14.03125-.773437-27.765625-4.363281-40.386718-10.546874 8.660156-20.433594 22.460937-36.738282 40.386718-47.023438zm0 69.589844v26.265625h-50.652344c.332032-12.667969 2.394532-25.230469 6.128907-37.335938 13.964843 6.597657 29.097656 10.359375 44.523437 11.070313zm0 38.265625v25.601562c-15.449218.820313-30.582031 4.695313-44.523437 11.398438-3.65625-12.011719-5.714844-24.453125-6.128907-37zm0 37.617187v57.570313c-17.925781-10.285157-31.726562-26.585938-40.386718-47.023438 12.621093-6.183593 26.355468-9.769531 40.386718-10.546875zm12 0c14.023438.800782 27.738282 4.449219 40.308594 10.722656-8.660156 20.351563-22.433594 36.589844-40.308594 46.84375zm0-12.019531v-25.597656h50.65625c-.421875 12.609375-2.5 25.109375-6.183594 37.175781-13.902343-6.792969-29.023437-10.726562-44.472656-11.574219zm62.664063-37.597656c-.367188-14.761719-2.890625-29.390625-7.480469-43.425781 7.199219-4.46875 13.882812-9.730469 19.917969-15.679688 13.667969 16.78125 21.625 37.488281 22.722656 59.105469zm-11.871094-55.035157c-6.421875-14.992187-16.039063-28.402343-28.179687-39.292968 16.761718 4.820312 32.046874 13.777344 44.441406 26.050781-4.953125 4.957031-10.402344 9.394531-16.261719 13.242187zm-113.691406.246094c-5.921875-3.824218-11.429688-8.25-16.433594-13.210937 12.445313-12.410157 27.832031-21.464844 44.722656-26.324219-12.210937 10.949219-21.867187 24.445312-28.289062 39.535156zm-4.363281 11.605469c-4.546876 13.960937-7.039063 28.507813-7.398438 43.183594h-35.160156c1.238281-21.449219 9.089844-41.992188 22.472656-58.800781 6.089844 5.941406 12.828125 11.183593 20.085938 15.617187zm-7.402344 55.183594c.445312 14.558593 2.9375 28.984375 7.402344 42.847656-7.265626 4.496094-14.003907 9.789063-20.089844 15.785156-13.378906-16.746093-21.230469-37.234375-22.46875-58.632812zm11.765625 54.121093c6.421875 15.089844 16.078125 28.589844 28.289062 39.542969-16.890625-4.859375-32.277343-13.914062-44.722656-26.324219 5.003906-4.964843 10.511719-9.394531 16.433594-13.21875zm113.691406.246094c5.859375 3.847656 11.308594 8.285156 16.261719 13.246094-12.394532 12.269531-27.679688 21.226562-44.441406 26.050781 12.140624-10.890625 21.757812-24.300781 28.179687-39.296875zm0 0" fill="#1ae5be"/></svg>